<?xml version="1.0" encoding="utf-8"?>
<!-- Generator: Adobe Illustrator 18.1.1, SVG Export Plug-In . SVG Version: 6.00 Build 0)  -->
<svg version="1.1" id="Layer_1" xmlns="http://www.w3.org/2000/svg" xmlns:xlink="http://www.w3.org/1999/xlink" x="0px" y="0px"
	 viewBox="0 1899 1440 202.1" enable-background="new 0 1899 1440 202.1" xml:space="preserve">
<path fill="#FFFFFF" d="M1047.9,1914.9c1.1-3.2-0.8-5.7-5.3-7.4c-3.2-1.1-11.7-4.3-23.4-6.4c-38.3-6.4-75.5,1.1-95.6,32.9
	c-5.3,9.6-9.6,24.4-9.6,46.8c0,46.8,1.1,109.5,1.1,111.6c0,3.2,1.1,5.3,5.3,6.4c3.2,1.1,10.6,2.1,21.3,2.1c11.7,0,21.1-1.1,24.3-2.1
	c4.3-2.1,4.1-5.3,4.1-5.3c0-38.3,0-104.2,0-109.5c0-21.3,18.2-32.3,39.5-29.3l1.2,0.3c14.9,3,17,2.3,21.3-4.1
	C1036.2,1943.5,1044.7,1925.5,1047.9,1914.9z"/>
<path fill="#FFFFFF" d="M89.3,2046.2c20.2,0,36.1-11.7,36.1-34c0-5.3,1.1-67.5,0-104.7c0,0,0-5.3,4.3-6.3c3.2-1.1,12.7-1.9,24.4-1.9
	c10.6,0,18.4,1,21.5,1.8c3.1,0.8,5.1,3.2,5.1,6.4c0,2.1,1.1,62.2,1.1,107.9c0,22.3-4.3,33.8-9.6,43.3
	c-15.9,27.6-44.6,42.3-81.8,42.3h-1.1c-37.2,0-64.8-14.6-80.8-42.3c-5.3-9.6-9.6-21.1-9.6-43.4c0-45.7,1.1-106.6,1.1-107.7
	c0-3.2,0.8-5.4,5.2-6.6c4.4-1.3,11.6-2,21.2-2c11.7,0,18.4,1.1,21.4,2.1c5.4,1.8,5.4,5.5,5.4,5.5c0,37.2-0.1,100.3-0.1,105.6
	C53.2,2034.5,69.1,2046.2,89.3,2046.2"/>
<path fill="#FFFFFF" d="M582.4,2096.9c-3.7-4.3-18.1-35.3-37.2-84.1c-20.2-52.1-38.3-99.9-38.3-106.3c0-6.4,14.9-7.4,25.5-7.4
	c22.3,0,24.4,2.1,28.7,10.6c2.1,5.3,34,89.3,40.4,106.3c0,1.1,3.2,1.1,4.3,0c8.5-22.3,39.3-102.1,42.5-106.4
	c4.3-8.5,6.4-10.6,28.7-10.6c10.6,0,25.5,0,25.5,7.4c0,6.4-17,53.2-37.2,105.3c-19.1,48.9-34.1,79.6-37.4,85.2
	c-2.5,4.3-12.3,4.1-21.9,4.1S586.1,2101.2,582.4,2096.9z"/>
<path fill="#FFFFFF" d="M302.9,1899c37.2,0,64.8,14.9,80.8,43.6c5.3,9.6,9.6,21.3,9.6,43.6c0,45.7-1.1,106.3-1.1,107.4
	c0,3.2-1.1,5.3-5.3,6.4c-3.2,1.1-10.6,1.1-21.3,1.1c-11.7,0-19.4-0.4-23.4-1.9c-4-1.5-4.2-5.3-4.2-5.3c0-38.3,0-101.2,0-106.5
	c0-22.3-14.9-36.1-36.2-36.1l0,0l0,0c-20.2,0-37.2,13.8-37.2,36.1c0,5.3-1.1,69.2,0,106.4c0,0-0.3,5-4.2,6.1
	c-4,1.1-10.6,1.3-22.3,1.3c-10.6,0-19.6-0.9-22.3-1.5c-2.7-0.6-5.3-3.2-5.3-5.3s-1.1-61.4-1.1-107.1c0-22.3,4.3-35.1,9.6-44.7
	c18.1-28.7,46.8-43.6,82.9-43.6H302.9z"/>
<path fill="#FFFFFF" d="M433.6,2099.3c-4.3-1.1-5.3-4.7-5.3-7.9c0-1.1-1.1-11.7-1.1-93.5c0-78.6,1.1-90.3,1.1-91.4
	c0-3.2,1.1-5.3,5.3-6.4c3.2-1.1,10.6-1.1,21.3-1.1c10.6,0,20.2,0.6,23.4,1.1c4.1,0.6,5.3,3.2,5.3,6.4c0,1.1,1.1,12.8,1.1,91.4
	c0,81.8-1.1,94-1.1,95c0,3.2-1.3,4.8-5.3,6.4c-3.2,1.1-10.8,1.7-21.4,1.7C446.1,2101,436.2,2099.9,433.6,2099.3z"/>
<g>
	<path fill="#FFFFFF" d="M889.7,1995.7c0-71.2-43.8-96.7-92.7-96.7c-57.4,0-94.6,38.3-94.6,96.7c0,72.3,60.6,105.3,97.8,105.3
		c36.1,0,56.3-7.4,75.5-17c6.4-3.2,7.4-4.3,6.4-8.5c-1.1-3.2-3.2-8.5-6.4-15.9c-4.3-8.5-8.2-14.6-10.6-17c-1.3-1.3-3.2-2.1-8.5,0
		c-15.9,7.4-39.3,11.7-53.1,11.7c-32.9,0-44.5-27.2-45.5-33.6c-0.1-1.1,0.1-1.6,1.5-1.6c9.6,0,34.5,1.1,54.7,1.1
		c32.9,0,56.3-1.1,67-1.1c4.6,0,8.4-1.7,8.5-6.4C889.6,2005.2,889.7,2003.1,889.7,1995.7z M838.2,1978.4l-80.5-0.2
		c-2.1,0-2.1-2.1-2.1-2.1c0-20.2,19.3-36,42.7-36c23.4,0,42.4,15.8,42.4,36C840.7,1978.2,839,1978.4,838.2,1978.4z"/>
</g>
<path fill="#FFFFFF" d="M1145.6,1974.5c-8.5,0-25.6-2.1-25.6-16.9c0-14.9,10.8-15.9,22.4-15.9c7.4,0,22.3,2.1,42.5,7.4
	c13.8,4.3,23.4,8.5,26.6,9.6c3.2,2.1,9.6-6.4,14.9-17c5.3-10.6,6.4-20.2,3.2-21.3c-5.3-3.2-46.8-21.3-90.3-21.3
	c-38.3,0-80.8,17-80.8,64.8c0,44.6,41,56.1,80.3,59.3l3.7,0.3c14.9,1.1,30.9,2,30.9,16.9c0,11.7-6.5,18.1-24.6,18.1
	c-21.3,0-46.8-9.6-63.8-18.1c-8.5-4.3-13.8-8.5-15.9-8.5c-2.1,0-9.6,6.4-15.9,14.9c-5.3,8.5-8.5,18.1-6.4,21.3
	c5.3,6.4,22.3,14.9,39.3,21.3c13.8,5.3,36.1,11.7,59.5,11.7c53.1,0,88.2-24.4,88.2-65.9C1236,1984.1,1183.9,1975.6,1145.6,1974.5z"
	/>
<g>
	<path fill="#FFFFFF" d="M1440,1995.6c0-71.2-43.8-96.7-92.7-96.7c-57.4,0-94.6,38.3-94.6,96.7c0,72.3,60.6,105.3,97.8,105.3
		c36.1,0,56.3-7.4,75.5-17c6.4-3.2,7.4-4.3,6.4-8.5c-1.1-3.2-3.2-8.5-6.4-15.9c-4.3-8.5-8.2-14.6-10.6-17c-1.3-1.3-3.2-2.1-8.5,0
		c-15.9,7.4-39.3,11.7-53.1,11.7c-32.9,0-44.5-27.2-45.5-33.6c-0.1-1.1,0.1-1.6,1.5-1.6c9.6,0,34.5,1.1,54.7,1.1
		c32.9,0,56.3-1.1,67-1.1c4.6,0,8.4-1.7,8.5-6.4C1439.9,2005.1,1440,2003.1,1440,1995.6z M1388.5,1978.4l-80.5-0.2
		c-2.1,0-2.1-2.1-2.1-2.1c0-20.2,19.3-36,42.7-36s42.4,15.8,42.4,36C1391,1978.2,1389.3,1978.4,1388.5,1978.4z"/>
</g>
</svg>
